<?xml version="1.0" standalone="no"?>
<!DOCTYPE svg PUBLIC "-//W3C//DTD SVG 20010904//EN"
 "http://www.w3.org/TR/2001/REC-SVG-20010904/DTD/svg10.dtd">
<svg version="1.0" xmlns="http://www.w3.org/2000/svg"
 width="690.000000pt" height="690.000000pt" viewBox="0 0 690.000000 690.000000"
 preserveAspectRatio="xMidYMid meet">
<metadata>
Created by potrace 1.14, written by Peter Selinger 2001-2017
</metadata>
<g transform="translate(0.000000,690.000000) scale(0.100000,-0.100000)"
fill="#000000" stroke="none">
<path d="M3654 6422 c-16 -16 -38 -20 -149 -26 -130 -6 -131 -6 -285 -67 -85
-33 -169 -64 -185 -68 -17 -4 -39 -13 -50 -19 -34 -18 -111 -52 -119 -52 -13
0 -106 -63 -106 -71 0 -5 -14 -16 -31 -24 -17 -9 -45 -28 -62 -43 -46 -39
-189 -182 -182 -182 3 0 -6 -12 -21 -27 -49 -52 -144 -208 -191 -317 -11 -24
-11 -27 2 -22 21 8 19 -11 -10 -101 -14 -43 -30 -92 -36 -109 -37 -120 -64
-450 -45 -564 15 -86 69 -245 93 -272 13 -15 15 -36 10 -124 -3 -59 -11 -112
-17 -118 -15 -15 -12 -56 5 -62 21 -8 93 29 138 72 31 30 38 33 44 19 3 -10 1
-20 -4 -24 -5 -3 -13 -19 -17 -36 -4 -16 -13 -33 -19 -37 -8 -5 -12 -33 -11
-75 1 -103 38 -170 136 -248 45 -35 195 -79 220 -64 15 9 -7 19 -112 50 -67
20 -81 29 -136 85 -59 60 -61 66 -68 126 -6 62 0 97 24 151 16 32 50 37 50 7
0 -15 7 -20 26 -20 24 0 25 -2 18 -45 -7 -52 5 -58 40 -20 31 34 86 35 86 3 1
-13 7 -34 15 -48 8 -14 14 -35 15 -48 0 -12 9 -30 20 -39 11 -10 20 -23 20
-30 0 -33 133 -314 161 -339 18 -16 19 -16 19 0 0 10 -34 88 -76 174 -64 131
-73 158 -61 167 12 9 12 15 -4 45 -12 22 -15 38 -9 44 6 6 10 23 10 39 0 50
31 171 55 212 19 32 34 44 82 62 32 13 87 26 123 29 l65 7 -22 -24 c-16 -19
-23 -42 -28 -105 -6 -70 -4 -87 13 -128 12 -25 27 -49 35 -52 24 -9 105 33
120 63 29 59 -11 233 -54 233 -5 0 -9 7 -9 16 0 11 6 13 19 9 14 -4 23 0 31
15 14 27 31 25 60 -5 29 -31 64 -32 84 -3 l15 21 11 -27 c5 -15 10 -32 10 -37
0 -5 7 -9 16 -9 13 0 15 7 10 33 -13 63 -26 222 -21 246 4 14 8 54 10 90 3 36
8 95 11 131 l7 65 13 -79 c14 -89 21 -108 77 -225 50 -106 79 -151 142 -225
46 -54 89 -86 115 -86 17 0 11 14 -21 49 -23 26 -27 36 -17 42 19 13 28 11 28
-6 0 -8 4 -15 10 -15 5 0 13 -12 16 -27 8 -32 22 -53 36 -53 6 0 7 9 3 23 -15
48 -26 159 -29 303 -4 151 6 218 18 133 15 -95 39 -215 47 -231 5 -9 19 -18
31 -20 15 -2 25 -13 31 -35 10 -34 19 -37 129 -51 31 -4 60 -10 63 -14 4 -3
-5 -24 -20 -46 -24 -37 -26 -45 -23 -147 2 -76 7 -110 16 -113 7 -2 12 6 12
21 0 22 4 24 40 24 32 0 40 -3 38 -16 -2 -9 -13 -20 -26 -26 -24 -11 -29 -31
-9 -38 22 -7 60 27 83 76 18 40 21 60 17 105 -6 52 -14 70 -55 114 -24 24 -23
28 8 28 39 0 104 -21 145 -46 27 -17 37 -30 37 -48 0 -27 17 -56 34 -56 14 0
38 -27 38 -42 0 -8 -5 -19 -12 -26 -9 -9 -8 -12 6 -12 11 0 25 8 32 18 13 16
15 16 27 0 8 -10 22 -14 39 -11 14 3 35 0 46 -6 14 -8 23 -8 27 -1 11 18 -16
42 -41 36 -12 -3 -30 -3 -40 1 -14 5 -15 8 -3 17 25 20 69 84 69 102 0 26 60
10 92 -25 56 -62 63 -156 17 -242 -18 -33 -29 -62 -26 -65 24 -24 70 55 82
143 4 26 15 57 25 68 10 11 27 43 39 70 12 28 35 62 52 77 16 15 32 41 36 58
3 18 12 34 19 37 8 3 14 18 14 35 0 19 4 27 11 22 7 -4 9 -25 7 -55 -3 -27 -1
-49 3 -49 13 0 29 36 29 67 0 15 13 55 28 88 16 33 36 83 45 110 21 61 25 203
9 300 -14 87 -15 195 -2 195 26 0 -7 235 -47 335 -8 22 -19 49 -23 60 -30 75
-104 217 -130 249 -16 21 -30 43 -30 49 0 6 -25 43 -55 83 -55 72 -110 123
-173 161 -18 11 -56 42 -85 69 -28 28 -68 60 -87 73 -19 13 -39 29 -45 35 -11
12 -128 71 -185 94 -157 62 -296 92 -456 99 -101 4 -113 3 -130 -15z m1074
-478 c-10 -10 -28 6 -28 24 0 15 1 15 17 -1 9 -9 14 -19 11 -23z m-2051 -79
c0 -8 -5 -15 -11 -15 -5 0 -25 -17 -43 -37 -29 -34 -34 -37 -48 -22 -14 14
-14 17 2 33 16 15 77 51 94 55 3 0 6 -6 6 -14z m118 -12 c44 -7 55 -17 55 -50
0 -29 -29 -37 -82 -22 -58 16 -72 31 -64 64 6 22 11 26 29 21 12 -3 40 -9 62
-13z m251 -79 c20 -41 11 -67 -23 -72 -17 -3 -21 3 -25 32 -4 39 6 76 21 76 6
0 18 -16 27 -36z m1647 -17 c42 -57 42 -57 -4 -52 -24 3 -43 7 -44 8 0 1 -8
17 -18 35 -15 26 -16 36 -7 47 16 19 41 6 73 -38z m-1093 -2 c13 -16 6 -35
-15 -35 -18 0 -26 15 -19 34 8 20 18 20 34 1z m1003 -21 l29 -34 -36 0 c-50 0
-99 49 -63 63 26 11 43 4 70 -29z m417 -275 c0 -6 -4 -7 -10 -4 -5 3 -10 11
-10 16 0 6 5 7 10 4 6 -3 10 -11 10 -16z m18 -48 c9 -25 8 -29 -4 -24 -8 3
-14 16 -14 29 0 32 6 30 18 -5z m-2738 -91 c0 -5 -4 -10 -10 -10 -5 0 -10 5
-10 10 0 6 5 10 10 10 6 0 10 -4 10 -10z m799 -375 c1 -33 6 -80 12 -105 12
-54 -2 -70 -64 -70 l-39 0 5 43 c2 23 12 67 20 97 9 30 24 85 34 123 l18 67 7
-47 c3 -27 7 -75 7 -108z m1086 107 c-8 -8 -25 10 -19 20 4 6 9 5 15 -3 4 -7
6 -15 4 -17z m-174 -63 c6 -35 17 -77 25 -93 8 -16 14 -37 14 -46 0 -10 9 -28
20 -42 26 -34 10 -48 -57 -48 l-53 0 5 58 c3 31 8 101 11 155 7 111 19 116 35
16z m986 -61 c-3 -8 -6 -5 -6 6 -1 11 2 17 5 13 3 -3 4 -12 1 -19z m-2760 -30
c-3 -8 -6 -5 -6 6 -1 11 2 17 5 13 3 -3 4 -12 1 -19z m690 -100 c-3 -7 -5 -2
-5 12 0 14 2 19 5 13 2 -7 2 -19 0 -25z m438 -38 c-3 -5 -12 -10 -18 -10 -7 0
-6 4 3 10 19 12 23 12 15 0z m-219 -44 c4 -11 26 -52 50 -90 24 -39 44 -78 44
-88 0 -9 5 -20 10 -23 6 -3 10 -12 10 -19 0 -9 -20 -12 -75 -10 -50 2 -101 -3
-151 -16 -75 -19 -94 -19 -94 1 0 20 74 40 166 47 52 4 94 12 94 17 0 15 -148
18 -193 5 -44 -13 -53 -9 -41 17 4 10 9 29 11 43 13 115 18 124 63 133 60 10
100 4 106 -17z m1421 -13 c-3 -10 -5 -4 -5 12 0 17 2 24 5 18 2 -7 2 -21 0
-30z m-462 16 c3 -3 16 -37 29 -75 13 -37 29 -70 35 -72 6 -2 11 -10 11 -18 0
-12 -9 -14 -45 -8 -63 9 -59 -11 6 -30 28 -9 58 -21 65 -27 23 -19 16 -32 -13
-25 -85 21 -138 24 -175 11 -50 -17 -54 -9 -40 83 5 37 7 72 3 77 -3 6 -9 -10
-13 -35 -5 -33 -6 -25 -4 31 2 42 6 81 11 88 5 9 26 12 66 9 32 -2 61 -7 64
-9z m-1505 -44 c0 -8 -4 -15 -10 -15 -5 0 -10 7 -10 15 0 8 5 15 10 15 6 0 10
-7 10 -15z m1617 -57 c-3 -8 -6 -5 -6 6 -1 11 2 17 5 13 3 -3 4 -12 1 -19z
m763 -81 c0 -35 -4 -47 -12 -44 -7 2 -11 11 -10 18 2 8 4 33 5 56 3 56 17 30
17 -30z m-753 37 c-3 -3 -12 -4 -19 -1 -8 3 -5 6 6 6 11 1 17 -2 13 -5z m140
-66 c-3 -8 -6 -5 -6 6 -1 11 2 17 5 13 3 -3 4 -12 1 -19z m-1446 -75 c-8 -15
-10 -15 -11 -2 0 17 10 32 18 25 2 -3 -1 -13 -7 -23z m1739 -64 c0 -12 -29
-24 -37 -16 -3 4 -3 13 0 21 6 16 37 11 37 -5z m-492 -95 l-26 -26 -7 22 c-4
13 -2 33 6 47 l13 24 20 -21 20 -20 -26 -26z m-973 36 c12 -20 -6 -50 -30 -50
-32 0 -37 12 -19 38 16 23 39 29 49 12z m-795 -14 c0 -3 -4 -8 -10 -11 -5 -3
-10 -1 -10 4 0 6 5 11 10 11 6 0 10 -2 10 -4z m-39 -25 c7 11 9 11 9 1 0 -7 4
-10 10 -7 5 3 8 0 5 -7 -6 -15 -65 -51 -72 -44 -3 3 -1 11 3 18 9 14 11 19 13
46 1 16 2 15 12 -2 9 -15 13 -16 20 -5z m2449 -1 c8 -15 7 -26 -7 -47 l-18
-27 -6 40 c-4 25 -3 42 5 46 15 10 14 11 26 -12z m-2241 -89 c-3 -6 -10 -7
-18 -2 -7 5 -10 14 -6 21 9 14 29 -2 24 -19z m75 -12 c-3 -5 -10 -7 -15 -3 -5
3 -7 10 -3 15 3 5 10 7 15 3 5 -3 7 -10 3 -15z m510 -4 c-4 -18 -1 -27 10 -31
20 -8 21 -33 1 -41 -18 -6 -44 23 -45 51 0 10 8 25 18 32 23 18 23 18 16 -11z"/>
<path d="M4502 4128 c-7 -7 -12 -20 -12 -31 0 -10 -5 -27 -11 -38 -6 -11 -14
-41 -19 -67 -5 -26 -12 -59 -16 -74 -3 -15 -3 -35 0 -45 6 -14 10 -11 26 15
11 18 20 44 20 59 0 15 9 60 21 101 20 72 17 106 -9 80z"/>
<path d="M4597 3917 c-2 -7 -25 -23 -51 -35 -25 -13 -46 -28 -46 -33 0 -5 -7
-9 -15 -9 -8 0 -15 -4 -15 -10 0 -16 43 -10 75 11 17 11 38 22 47 25 10 3 20
15 23 25 4 10 11 19 16 19 5 0 9 5 9 10 0 15 -37 12 -43 -3z"/>
<path d="M3700 3904 c0 -9 5 -14 12 -12 18 6 21 28 4 28 -9 0 -16 -7 -16 -16z"/>
<path d="M4362 3708 c-12 -24 -24 -50 -27 -58 -28 -71 -118 -166 -211 -224
-43 -27 -103 -65 -133 -85 -30 -20 -61 -40 -70 -46 -9 -5 -20 -16 -24 -22 -4
-7 -17 -13 -29 -13 -26 0 -108 -47 -108 -61 0 -27 128 27 209 88 24 18 46 32
48 30 1 -2 -1 -68 -5 -148 -10 -185 -9 -248 3 -250 14 -3 22 55 30 222 6 105
4 152 -4 167 -11 20 -9 24 20 40 17 9 50 31 73 49 22 18 56 40 74 49 43 22
142 145 170 211 37 88 23 131 -16 51z"/>
<path d="M2980 3486 c0 -16 9 -26 71 -76 24 -19 52 -43 62 -53 21 -21 146 -87
165 -87 30 0 44 -69 43 -226 0 -148 8 -188 30 -153 11 18 11 240 -1 299 -4 25
-7 47 -5 48 4 4 60 -19 108 -44 16 -8 47 -14 70 -14 l42 0 -30 18 c-16 9 -55
26 -85 36 -30 11 -69 27 -86 37 -18 10 -61 32 -95 50 -35 19 -89 53 -121 76
-31 24 -61 43 -67 43 -6 0 -26 14 -44 30 -38 33 -57 38 -57 16z"/>
<path d="M3670 3405 c-11 -13 -8 -15 25 -15 25 0 35 4 33 13 -7 18 -43 20 -58
2z"/>
<path d="M3570 3192 c0 -13 22 -21 85 -28 32 -4 55 -2 59 4 9 15 -1 19 -76 27
-42 4 -68 3 -68 -3z"/>
<path d="M3065 3073 c-26 -12 -54 -28 -62 -34 -25 -22 -51 -84 -63 -151 -14
-81 -42 -117 -106 -138 -31 -11 -50 -23 -53 -35 -3 -16 2 -17 35 -12 34 6 43
3 69 -23 71 -69 176 -150 283 -216 172 -106 220 -128 335 -149 109 -20 234
-16 290 9 18 8 49 20 71 26 69 22 207 98 400 223 41 26 81 47 90 47 27 0 18
38 -14 62 -49 36 -60 68 -50 141 15 100 3 138 -52 173 -26 16 -50 24 -71 22
-45 -4 -35 -21 20 -35 26 -7 53 -20 60 -29 15 -21 9 -254 -8 -285 -15 -30 -3
-36 20 -10 18 20 20 21 36 5 20 -20 31 -10 -105 -98 -74 -47 -97 -57 -120 -52
-23 4 -28 2 -23 -9 3 -8 0 -15 -6 -15 -6 0 -11 5 -11 10 0 6 -7 10 -16 10 -14
0 -14 -3 -4 -15 10 -13 9 -15 -9 -15 -15 0 -21 -5 -19 -17 2 -13 -5 -19 -27
-21 -16 -2 -33 -9 -37 -15 -6 -9 -8 -9 -8 1 0 6 -9 12 -20 12 -15 0 -20 -7
-20 -25 0 -33 -31 -48 -101 -49 -32 0 -55 -4 -53 -7 6 -11 -19 -25 -49 -28
-42 -4 -87 20 -87 46 0 13 -4 23 -9 23 -6 0 -9 -12 -8 -27 2 -27 0 -28 -50
-31 -29 -2 -53 1 -53 6 0 4 -24 16 -52 27 -29 10 -65 26 -79 36 -14 10 -37 21
-50 24 -33 8 -99 67 -99 88 0 10 -4 17 -10 17 -5 0 -10 -7 -10 -15 0 -8 -3
-15 -6 -15 -8 0 -235 184 -257 208 -18 20 -18 21 11 36 34 17 59 72 73 156 5
30 17 66 27 80 32 43 99 71 184 77 61 5 75 9 71 20 -9 23 -141 14 -198 -14z"/>
<path d="M3147 2963 c-2 -5 -7 -21 -11 -38 -4 -16 -12 -33 -18 -36 -6 -4 -8
-13 -6 -20 2 -7 14 3 27 24 l23 37 31 -24 c18 -13 51 -33 75 -45 24 -12 46
-29 49 -37 3 -8 12 -13 20 -10 8 4 67 -12 130 -34 113 -39 178 -51 157 -30 -6
6 -50 24 -100 41 -49 17 -93 34 -99 38 -5 4 -32 15 -60 25 -72 25 -94 36 -145
71 -64 44 -68 46 -73 38z"/>
<path d="M4030 2873 c-8 -3 -62 -28 -120 -57 -58 -28 -121 -56 -140 -61 -19
-6 -33 -15 -30 -20 5 -9 19 -9 45 -1 6 1 31 9 58 16 26 7 50 16 53 21 3 5 14
9 24 9 10 0 23 6 27 13 4 6 32 23 60 37 29 14 53 31 53 38 0 13 -6 14 -30 5z"/>
<path d="M3080 2860 c0 -5 5 -10 11 -10 5 0 7 5 4 10 -3 6 -8 10 -11 10 -2 0
-4 -4 -4 -10z"/>
<path d="M3136 2821 c-4 -7 -5 -15 -2 -18 9 -9 19 4 14 18 -4 11 -6 11 -12 0z"/>
<path d="M3070 2790 c0 -12 -4 -19 -9 -16 -5 3 -11 -3 -14 -14 -5 -21 9 -23
30 -3 15 14 17 39 3 48 -5 3 -10 -3 -10 -15z"/>
<path d="M4138 2792 c-7 -10 -24 -22 -38 -25 -31 -8 -67 -33 -59 -42 9 -8 132
57 131 70 -1 18 -20 16 -34 -3z"/>
<path d="M3180 2785 c0 -8 9 -19 19 -25 25 -13 31 -13 31 0 0 6 -7 10 -15 10
-8 0 -15 7 -15 15 0 8 -4 15 -10 15 -5 0 -10 -7 -10 -15z"/>
<path d="M3291 2774 c0 -11 3 -14 6 -6 3 7 2 16 -1 19 -3 4 -6 -2 -5 -13z"/>
<path d="M2714 2759 c-16 -5 -68 -45 -115 -90 -208 -200 -282 -255 -444 -329
-38 -18 -74 -38 -78 -46 -4 -8 -12 -14 -17 -14 -5 0 -38 -14 -72 -31 -35 -17
-85 -43 -113 -56 -52 -26 -124 -83 -105 -83 23 0 309 141 349 172 13 10 28 18
33 18 16 0 80 32 125 62 23 15 46 28 51 28 5 0 17 9 27 20 10 11 23 20 29 20
6 0 74 62 151 136 77 75 157 147 178 161 20 13 37 28 37 33 0 6 -1 10 -2 9 -2
0 -17 -5 -34 -10z"/>
<path d="M3451 2744 c0 -11 3 -14 6 -6 3 7 2 16 -1 19 -3 4 -6 -2 -5 -13z"/>
<path d="M3930 2740 c0 -6 12 -10 27 -10 29 0 24 12 -7 17 -11 2 -20 -2 -20
-7z"/>
<path d="M3027 2724 c-4 -4 -7 -17 -6 -28 0 -12 3 -15 6 -8 4 10 8 10 19 1 18
-14 18 1 1 25 -7 9 -16 14 -20 10z"/>
<path d="M3438 2690 c2 -16 6 -30 8 -30 2 0 4 14 4 30 0 17 -4 30 -8 30 -5 0
-7 -13 -4 -30z"/>
<path d="M3800 2689 c0 -20 6 -49 14 -63 l14 -27 4 25 c3 14 1 23 -3 20 -5 -3
-9 7 -9 23 0 15 -5 35 -10 43 -7 11 -10 6 -10 -21z"/>
<path d="M3235 2690 c-16 -18 -17 -23 -5 -30 11 -7 17 -3 23 12 12 33 3 42
-18 18z"/>
<path d="M3300 2700 c-12 -8 -9 -12 18 -22 17 -7 32 -16 32 -20 0 -18 16 -6
17 13 2 16 -3 20 -17 16 -13 -3 -17 -1 -13 9 6 16 -15 18 -37 4z"/>
<path d="M4000 2700 c0 -5 5 -10 10 -10 6 0 10 5 10 10 0 6 -4 10 -10 10 -5 0
-10 -4 -10 -10z"/>
<path d="M3534 2663 c-30 -25 -74 -94 -74 -115 0 -10 -8 -26 -19 -37 -15 -15
-17 -26 -11 -60 4 -23 10 -44 13 -48 8 -7 27 41 27 67 0 37 42 125 73 152 21
19 42 28 65 28 48 0 36 24 -14 28 -26 1 -46 -4 -60 -15z"/>
<path d="M3960 2670 c0 -5 -10 -10 -22 -10 -26 0 -55 -16 -46 -25 3 -3 23 1
43 9 46 20 42 20 48 -4 6 -24 37 -27 37 -4 0 9 -9 18 -20 21 -11 3 -20 9 -20
14 0 5 -4 9 -10 9 -5 0 -10 -4 -10 -10z"/>
<path d="M3421 2654 c0 -11 3 -14 6 -6 3 7 2 16 -1 19 -3 4 -6 -2 -5 -13z"/>
<path d="M4510 2648 c0 -20 303 -301 380 -353 16 -11 29 -25 30 -31 0 -7 15
-19 33 -27 18 -9 47 -29 64 -45 42 -40 242 -171 433 -283 30 -18 59 -39 63
-46 4 -7 14 -13 21 -13 7 0 28 -11 47 -25 19 -15 67 -50 106 -79 94 -69 152
-116 179 -143 21 -23 54 -31 54 -14 0 22 -123 123 -281 231 -62 43 -119 83
-126 89 -7 6 -14 11 -17 11 -3 0 -43 25 -90 55 -47 31 -116 71 -153 91 -61 31
-87 49 -183 124 -14 11 -61 47 -105 82 -73 56 -221 186 -335 295 -41 38 -109
93 -117 93 -2 0 -3 -6 -3 -12z"/>
<path d="M3117 2635 c3 -8 9 -12 14 -9 12 7 11 11 -5 17 -10 4 -13 1 -9 -8z"/>
<path d="M3150 2625 c0 -8 4 -15 10 -15 5 0 7 7 4 15 -4 8 -8 15 -10 15 -2 0
-4 -7 -4 -15z"/>
<path d="M3206 2627 c-11 -8 -16 -20 -13 -28 4 -10 6 -9 6 4 1 9 8 17 16 17 8
0 15 5 15 10 0 13 -3 13 -24 -3z"/>
<path d="M3665 2620 c-3 -6 2 -13 12 -17 23 -8 63 -52 63 -70 0 -7 -11 -13
-24 -13 -14 0 -27 -4 -31 -10 -3 -5 -12 -7 -20 -3 -8 3 -15 0 -15 -7 0 -11 30
-9 82 3 3 1 5 -1 5 -4 -1 -4 5 -15 14 -25 10 -11 19 -28 21 -39 2 -12 13 -21
26 -23 22 -3 30 12 12 23 -5 3 -10 19 -10 35 0 71 -109 192 -135 150z"/>
<path d="M3596 2611 c-4 -7 -5 -15 -2 -18 9 -9 19 4 14 18 -4 11 -6 11 -12 0z"/>
<path d="M3396 2576 c-8 -44 -2 -57 13 -28 7 13 8 29 2 43 -7 21 -9 20 -15
-15z"/>
<path d="M4015 2599 c-4 -6 -5 -13 -2 -16 7 -7 27 6 27 18 0 12 -17 12 -25 -2z"/>
<path d="M4136 2591 c-10 -11 -14 -21 -9 -24 11 -6 46 30 35 37 -5 3 -17 -3
-26 -13z"/>
<path d="M3252 2578 c2 -6 13 -16 24 -22 10 -6 22 -15 25 -20 8 -10 29 1 29
15 0 5 -8 9 -19 9 -10 0 -24 7 -31 15 -15 18 -33 20 -28 3z"/>
<path d="M3840 2573 c0 -7 6 -13 13 -13 8 0 14 6 14 13 0 8 -6 14 -14 14 -7 0
-13 -6 -13 -14z"/>
<path d="M4039 2550 c25 -21 46 -27 36 -10 -3 6 -13 10 -21 10 -8 0 -14 5 -14
10 0 6 -6 10 -12 10 -7 -1 -2 -10 11 -20z"/>
<path d="M4090 2562 c0 -5 7 -13 16 -16 10 -4 14 -1 12 6 -5 15 -28 23 -28 10z"/>
<path d="M3587 2553 c-4 -3 -4 -28 -1 -55 6 -40 4 -48 -10 -48 -10 0 -16 -8
-16 -22 1 -21 1 -22 11 -5 10 18 11 18 25 0 13 -16 14 -10 12 50 -3 69 -9 93
-21 80z"/>
<path d="M3639 2529 c-10 -6 -7 -9 14 -9 29 0 35 5 14 13 -8 3 -20 1 -28 -4z"/>
<path d="M3874 2532 c-12 -8 -3 -46 15 -56 18 -11 23 15 5 28 -9 7 -14 18 -10
24 8 14 6 15 -10 4z"/>
<path d="M3525 2460 c4 -6 11 -8 16 -5 14 9 11 15 -7 15 -8 0 -12 -5 -9 -10z"/>
<path d="M3346 2444 c-4 -10 -1 -14 6 -12 15 5 23 28 10 28 -5 0 -13 -7 -16
-16z"/>
<path d="M3590 2390 c0 -5 5 -10 10 -10 6 0 10 5 10 10 0 6 -4 10 -10 10 -5 0
-10 -4 -10 -10z"/>
<path d="M3647 2385 c6 -17 25 -15 31 3 2 7 -5 12 -17 12 -14 0 -19 -5 -14
-15z"/>
<path d="M1556 2029 c-39 -33 -63 -98 -105 -274 -12 -49 -28 -115 -37 -145 -8
-30 -21 -85 -28 -121 -8 -36 -30 -107 -50 -157 -20 -51 -36 -96 -36 -100 0 -5
-11 -30 -23 -58 -13 -27 -36 -83 -52 -124 -30 -81 -35 -95 -58 -155 -9 -22
-23 -67 -32 -100 -9 -33 -23 -78 -30 -100 -7 -22 -20 -71 -30 -110 -9 -38 -20
-84 -26 -101 -5 -17 -9 -38 -9 -48 0 -16 -17 -58 -61 -152 -10 -22 -19 -46
-19 -52 0 -7 -4 -12 -9 -12 -5 0 -19 -21 -32 -47 -12 -27 -26 -50 -29 -53 -4
-3 -13 -18 -21 -35 -8 -16 -23 -42 -33 -58 -15 -21 -15 -27 -4 -27 29 0 49 28
124 165 11 22 33 61 48 87 29 53 76 189 107 313 11 44 29 107 39 140 11 33 33
107 50 165 17 58 35 113 41 124 6 10 19 44 29 75 19 57 59 160 86 218 8 17 14
37 14 45 0 7 10 40 21 73 28 82 68 235 84 320 13 67 56 208 77 250 6 11 22 32
35 46 36 39 11 45 -31 8z"/>
<path d="M1620 1460 c0 -28 59 -182 102 -265 12 -22 33 -64 48 -92 16 -29 33
-65 39 -80 6 -16 15 -35 19 -43 32 -56 36 -72 38 -170 1 -58 -1 -125 -6 -150
-15 -79 -24 -268 -13 -282 6 -7 13 -42 16 -78 8 -108 38 -264 53 -280 24 -24
39 1 25 43 -6 18 -14 51 -16 73 -3 21 -13 93 -23 159 -21 149 -23 346 -3 394
17 39 19 181 4 214 -6 12 -26 58 -44 102 -18 43 -49 108 -69 143 -93 170 -131
250 -137 295 -7 53 -33 67 -33 17z"/>
<path d="M5580 1442 c0 -10 -5 -23 -11 -29 -11 -11 -34 -86 -54 -183 -8 -36
-16 -74 -19 -85 -5 -21 -80 -241 -115 -337 -12 -32 -21 -64 -21 -71 0 -8 -9
-26 -20 -40 -11 -14 -20 -30 -20 -35 0 -6 -20 -54 -45 -106 -25 -53 -45 -101
-45 -107 0 -6 -6 -25 -14 -42 -24 -56 -46 -143 -46 -180 0 -30 4 -37 20 -37
17 0 20 7 20 43 0 51 27 139 70 225 16 33 30 67 30 75 0 7 7 22 15 33 8 10 15
25 15 31 0 7 11 36 24 65 13 29 29 69 36 88 7 19 16 44 21 55 23 54 77 239
112 380 34 139 52 198 71 236 20 40 20 39 -4 39 -13 0 -20 -7 -20 -18z"/>
<path d="M5967 1443 c-3 -4 1 -26 9 -48 25 -70 28 -235 9 -416 -20 -198 -16
-270 32 -559 3 -19 7 -120 7 -225 1 -172 3 -190 19 -193 16 -3 17 10 17 175
-1 168 -11 274 -50 518 -11 70 -10 122 12 373 8 100 8 153 -1 215 -15 108 -40
182 -54 160z"/>
<path d="M5148 3 c7 -3 16 -2 19 1 4 3 -2 6 -13 5 -11 0 -14 -3 -6 -6z"/>
</g>
</svg>
